<?xml version="1.0" encoding="UTF-8" standalone="no"?><!DOCTYPE svg PUBLIC "-//W3C//DTD SVG 1.1//EN" "http://www.w3.org/Graphics/SVG/1.1/DTD/svg11.dtd"><svg width="100%" height="100%" viewBox="0 0 1809 610" version="1.1" xmlns="http://www.w3.org/2000/svg" xmlns:xlink="http://www.w3.org/1999/xlink" xml:space="preserve" xmlns:serif="http://www.serif.com/" style="fill-rule:evenodd;clip-rule:evenodd;stroke-linejoin:round;stroke-miterlimit:2;"><g transform="matrix(2.26945,0,0,2.26945,-275.593,-592.284)"><g transform="matrix(288,0,0,288,116.876,498.892)"><path d="M0.07,-0l0,-0.72l0.44,0l0,0.136l-0.304,0l0,0.156l0.244,-0l0,0.136l-0.244,-0l0,0.292l-0.136,-0Z" style="fill-rule:nonzero;"/></g><g transform="matrix(288,0,0,288,269.516,498.892)"><rect x="0.08" y="-0.735" width="0.136" height="0.735" style="fill-rule:nonzero;"/></g><g transform="matrix(288,0,0,288,354.764,498.892)"><path d="M0.22,0.015c-0.039,0 -0.071,-0.007 -0.098,-0.022c-0.027,-0.015 -0.047,-0.035 -0.061,-0.06c-0.014,-0.025 -0.021,-0.052 -0.021,-0.082c0,-0.025 0.004,-0.048 0.012,-0.068c0.007,-0.021 0.02,-0.039 0.037,-0.055c0.017,-0.016 0.04,-0.029 0.069,-0.04c0.02,-0.007 0.044,-0.014 0.072,-0.02c0.027,-0.005 0.059,-0.011 0.094,-0.016c0.034,-0.005 0.073,-0.011 0.115,-0.017l-0.049,0.027c-0,-0.032 -0.008,-0.055 -0.023,-0.071c-0.015,-0.014 -0.041,-0.022 -0.077,-0.022c-0.02,0 -0.041,0.005 -0.062,0.015c-0.022,0.009 -0.037,0.026 -0.046,0.051l-0.123,-0.039c0.014,-0.045 0.039,-0.081 0.077,-0.109c0.038,-0.028 0.089,-0.042 0.154,-0.042c0.048,0 0.09,0.007 0.127,0.022c0.037,0.015 0.065,0.04 0.084,0.076c0.011,0.02 0.017,0.04 0.019,0.06c0.002,0.02 0.003,0.042 0.003,0.067l0,0.33l-0.119,-0l0,-0.111l0.017,0.023c-0.026,0.036 -0.055,0.063 -0.085,0.079c-0.031,0.016 -0.069,0.024 -0.116,0.024Zm0.029,-0.107c0.025,-0 0.046,-0.004 0.063,-0.013c0.017,-0.009 0.031,-0.019 0.041,-0.031c0.01,-0.011 0.017,-0.02 0.021,-0.028c0.007,-0.015 0.011,-0.032 0.012,-0.051c0.001,-0.02 0.002,-0.036 0.002,-0.049l0.04,0.01c-0.04,0.007 -0.073,0.012 -0.098,0.017c-0.025,0.004 -0.045,0.008 -0.061,0.012c-0.015,0.004 -0.028,0.008 -0.04,0.012c-0.013,0.005 -0.024,0.011 -0.032,0.017c-0.008,0.006 -0.014,0.013 -0.018,0.02c-0.004,0.008 -0.006,0.016 -0.006,0.025c-0,0.012 0.003,0.023 0.009,0.032c0.006,0.009 0.015,0.015 0.026,0.02c0.012,0.005 0.025,0.007 0.041,0.007Z" style="fill-rule:nonzero;"/></g><g transform="matrix(288,0,0,288,522.668,498.892)"><path d="M0.07,-0l0,-0.54l0.12,0l0,0.132l-0.013,-0.017c0.007,-0.019 0.016,-0.036 0.028,-0.051c0.012,-0.015 0.026,-0.028 0.043,-0.038c0.013,-0.008 0.027,-0.014 0.042,-0.019c0.016,-0.004 0.032,-0.007 0.048,-0.008c0.016,-0.001 0.033,-0.001 0.049,0.001l0,0.127c-0.015,-0.005 -0.032,-0.006 -0.052,-0.005c-0.02,0.002 -0.038,0.006 -0.054,0.014c-0.016,0.007 -0.029,0.017 -0.04,0.029c-0.011,0.012 -0.02,0.027 -0.025,0.043c-0.006,0.017 -0.009,0.035 -0.009,0.056l0,0.276l-0.137,-0Z" style="fill-rule:nonzero;"/></g><g transform="matrix(288,0,0,288,638.444,498.892)"><path d="M0.321,0.015c-0.055,0 -0.104,-0.012 -0.146,-0.036c-0.042,-0.024 -0.075,-0.056 -0.099,-0.098c-0.024,-0.042 -0.036,-0.09 -0.036,-0.144c-0,-0.059 0.012,-0.11 0.035,-0.154c0.023,-0.044 0.055,-0.078 0.097,-0.102c0.041,-0.024 0.088,-0.036 0.141,-0.036c0.057,0 0.105,0.013 0.144,0.04c0.04,0.027 0.069,0.064 0.088,0.112c0.02,0.049 0.026,0.106 0.02,0.171l-0.134,0l-0,-0.05c-0,-0.055 -0.009,-0.095 -0.026,-0.119c-0.018,-0.024 -0.046,-0.036 -0.086,-0.036c-0.046,0 -0.08,0.014 -0.102,0.042c-0.022,0.028 -0.033,0.07 -0.033,0.125c0,0.05 0.011,0.089 0.033,0.117c0.022,0.027 0.054,0.041 0.096,0.041c0.027,0 0.049,-0.006 0.069,-0.017c0.019,-0.012 0.033,-0.029 0.043,-0.051l0.136,0.039c-0.02,0.049 -0.052,0.088 -0.096,0.115c-0.044,0.027 -0.092,0.041 -0.144,0.041Zm-0.179,-0.247l0,-0.101l0.358,0l0,0.101l-0.358,0Z" style="fill-rule:nonzero;"/></g><g transform="matrix(576,0,0,576,925.868,498.892)"></g><text x="813.548px" y="498.892px" style="font-family:'RethinkSans-Regular', 'Rethink Sans';font-size:576px;fill:#4c5bd4;">.</text></g></svg>