<?xml version="1.0" encoding="UTF-8" standalone="no"?><!DOCTYPE svg PUBLIC "-//W3C//DTD SVG 1.1//EN" "http://www.w3.org/Graphics/SVG/1.1/DTD/svg11.dtd"><svg width="100%" height="100%" viewBox="0 0 853 309" version="1.1" xmlns="http://www.w3.org/2000/svg" xmlns:xlink="http://www.w3.org/1999/xlink" xml:space="preserve" xmlns:serif="http://www.serif.com/" style="fill-rule:evenodd;clip-rule:evenodd;stroke-linejoin:round;stroke-miterlimit:2;"><g transform="matrix(2.08333,0,0,2.08333,-390.007,-718.125)"><g transform="matrix(150.274,0,0,150.274,193.72,470.267)"><path d="M0.066,-0l0,-0.7l0.44,0l0,0.12l-0.308,0l0,0.169l0.284,0l-0,0.12l-0.284,0l0,0.291l-0.132,0Z" style="fill:#F3EDE5;fill-rule:nonzero;"/></g><g transform="matrix(150.274,0,0,150.274,273.966,470.267)"><rect x="0.07" y="-0.7" width="0.126" height="0.7" style="fill:#F3EDE5;fill-rule:nonzero;"/></g><g transform="matrix(150.274,0,0,150.274,313.939,470.267)"><path d="M0.224,0.014c-0.035,0 -0.067,-0.006 -0.095,-0.019c-0.028,-0.012 -0.05,-0.03 -0.067,-0.054c-0.016,-0.023 -0.024,-0.052 -0.024,-0.086c0,-0.034 0.008,-0.063 0.025,-0.085c0.016,-0.023 0.038,-0.041 0.068,-0.052c0.028,-0.012 0.062,-0.018 0.099,-0.018l0.136,0l0,-0.028c-0,-0.023 -0.007,-0.042 -0.022,-0.057c-0.015,-0.015 -0.038,-0.023 -0.07,-0.023c-0.031,0 -0.055,0.007 -0.07,0.022c-0.015,0.014 -0.025,0.032 -0.03,0.055l-0.116,-0.039c0.008,-0.025 0.021,-0.048 0.039,-0.069c0.017,-0.021 0.041,-0.038 0.071,-0.051c0.029,-0.013 0.065,-0.02 0.108,-0.02c0.065,0 0.117,0.016 0.155,0.049c0.038,0.033 0.057,0.08 0.057,0.142l0,0.185c0,0.02 0.009,0.03 0.028,0.03l0.04,0l0,0.104l-0.084,-0c-0.025,-0 -0.045,-0.006 -0.061,-0.018c-0.016,-0.012 -0.024,-0.028 -0.024,-0.048l0,-0.001l-0.019,0c-0.003,0.008 -0.009,0.018 -0.018,0.032c-0.009,0.013 -0.024,0.024 -0.044,0.034c-0.02,0.01 -0.047,0.015 -0.082,0.015Zm0.022,-0.102c0.035,0 0.064,-0.01 0.087,-0.029c0.022,-0.02 0.033,-0.046 0.033,-0.079l0,-0.01l-0.127,0c-0.023,-0 -0.042,0.005 -0.055,0.015c-0.013,0.01 -0.02,0.024 -0.02,0.042c0,0.018 0.007,0.033 0.021,0.044c0.014,0.011 0.034,0.017 0.061,0.017Z" style="fill:#F3EDE5;fill-rule:nonzero;"/></g><g transform="matrix(150.274,0,0,150.274,400.797,470.267)"><path d="M0.07,-0l0,-0.496l0.124,0l0,0.056l0.018,0c0.007,-0.02 0.019,-0.035 0.036,-0.044c0.017,-0.009 0.037,-0.014 0.06,-0.014l0.06,0l-0,0.112l-0.062,0c-0.032,0 -0.058,0.009 -0.079,0.026c-0.021,0.017 -0.031,0.043 -0.031,0.078l-0,0.282l-0.126,-0Z" style="fill:#F3EDE5;fill-rule:nonzero;"/></g><g transform="matrix(150.274,0,0,150.274,457.601,470.267)"><path d="M0.296,0.014c-0.049,0 -0.093,-0.011 -0.13,-0.032c-0.038,-0.02 -0.067,-0.05 -0.088,-0.089c-0.021,-0.038 -0.032,-0.083 -0.032,-0.135l0,-0.012c0,-0.052 0.01,-0.097 0.031,-0.136c0.021,-0.038 0.05,-0.068 0.087,-0.089c0.037,-0.021 0.081,-0.031 0.13,-0.031c0.049,0 0.091,0.011 0.127,0.032c0.036,0.022 0.064,0.052 0.084,0.09c0.02,0.039 0.03,0.083 0.03,0.134l0,0.043l-0.361,0c0.001,0.034 0.014,0.062 0.038,0.083c0.024,0.021 0.053,0.032 0.088,0.032c0.035,-0 0.061,-0.008 0.078,-0.023c0.017,-0.015 0.029,-0.032 0.038,-0.051l0.103,0.054c-0.009,0.017 -0.023,0.036 -0.04,0.056c-0.018,0.021 -0.042,0.038 -0.071,0.052c-0.029,0.015 -0.067,0.022 -0.112,0.022Zm-0.121,-0.319l0.232,0c-0.003,-0.029 -0.014,-0.052 -0.035,-0.069c-0.02,-0.017 -0.046,-0.026 -0.079,-0.026c-0.034,-0 -0.061,0.009 -0.081,0.026c-0.02,0.017 -0.032,0.04 -0.037,0.069Z" style="fill:#F3EDE5;fill-rule:nonzero;"/></g><g transform="matrix(150.274,0,0,150.274,543.407,470.267)"><path d="M0.15,0.014c-0.027,0 -0.05,-0.009 -0.068,-0.027c-0.019,-0.018 -0.028,-0.04 -0.028,-0.068c0,-0.028 0.009,-0.051 0.028,-0.068c0.018,-0.018 0.041,-0.027 0.068,-0.027c0.026,0 0.049,0.009 0.067,0.027c0.018,0.018 0.027,0.04 0.027,0.068c0,0.028 -0.009,0.051 -0.027,0.069c-0.018,0.017 -0.041,0.026 -0.068,0.026Z" style="fill:#F07732;fill-rule:nonzero;"/></g><g transform="matrix(150.274,0,0,150.274,588.188,470.267)"></g></g></svg>